Coordinates
version=1
nRows=14
nColumns=24
inDegrees=yes

Units are S.I. units (second, meters, Newtons, ...)
If the header above contains a line with 'inDegrees', this indicates whether rotational values are in degrees (yes) or radians (no).

endheader
time	pelvis_tilt	pelvis_list	pelvis_rotation	pelvis_tx	pelvis_ty	pelvis_tz	hip_flexion_r	hip_adduction_r	hip_rotation_r	knee_angle_r	ankle_angle_r	subtalar_angle_r	mtp_angle_r	hip_flexion_l	hip_adduction_l	hip_rotation_l	knee_angle_l	ankle_angle_l	subtalar_angle_l	mtp_angle_l	lumbar_extension	lumbar_bending	lumbar_rotation
      3.15500000	      9.86751283	      2.00206624	     11.62322020	      1.53371570	      0.88911950	     -0.27390633	     19.91718909	     -1.91664194	    -13.62290360	    -22.45760056	     -7.02996267	     -9.19787822	      0.00000000	    -24.76322630	     -3.31665783	     -0.30198580	    -29.00203700	      3.62212758	     12.75833331	      0.00000000	    -16.84054027	     -1.01629115	    -13.76487093
      3.16000000	     10.11605840	      1.57729228	     11.58474903	      1.54173868	      0.88928875	     -0.27302161	     19.83959377	     -1.30686012	    -13.34976502	    -23.62390501	     -6.30179256	     -9.75797122	      0.00000000	    -24.37288414	     -4.03089187	     -0.84280042	    -30.58013127	      1.80843794	     12.91481449	      0.00000000	    -16.96934919	     -0.48582184	    -13.58464104
      3.16500000	     10.36486395	      1.18000635	     11.57047698	      1.54971297	      0.88950311	     -0.27217347	     19.72628002	     -0.73819384	    -13.16624398	    -24.76263490	     -5.39421564	    -10.14689843	      0.00000000	    -23.93715847	     -4.72891546	     -1.31059686	    -32.18468688	     -0.14240759	     12.97194892	      0.00000000	    -17.10955555	     -0.00546554	    -13.51395538
      3.17000000	     10.59144815	      0.74388228	     11.52635553	      1.55770221	      0.88975130	     -0.27125069	     19.57815444	     -0.10094717	    -12.96613952	    -25.77028730	     -4.57878347	    -10.50014182	      0.00000000	    -23.43967683	     -5.46215101	     -1.80259299	    -33.80026607	     -2.27507727	     12.94613791	      0.00000000	    -17.21160109	      0.49604171	    -13.36386403
      3.17500000	     10.82127644	      0.34441419	     11.50307648	      1.56556850	      0.89003279	     -0.27040170	     19.38313929	      0.49365101	    -12.81031831	    -26.72238745	     -3.59648518	    -10.84415231	      0.00000000	    -22.89542892	     -6.15129673	     -2.17658817	    -35.45301957	     -4.37230311	     12.84947494	      0.00000000	    -17.34281680	      0.98892618	    -13.24239850
      3.18000000	     11.01320909	     -0.08578623	     11.47191202	      1.57342456	      0.89035091	     -0.26955008	     19.16028637	      1.12743312	    -12.67846750	    -27.52770562	     -2.76347872	    -11.05461634	      0.00000000	    -22.27045185	     -6.85615825	     -2.51758887	    -37.11255060	     -6.58694613	     12.49601678	      0.00000000	    -17.42261925	      1.48144649	    -13.06037633
      3.18500000	     11.19305021	     -0.48131857	     11.44740211	      1.58117174	      0.89068814	     -0.26877641	     18.90607077	      1.71452356	    -12.60041547	    -28.26555991	     -1.85650389	    -11.22078722	      0.00000000	    -21.59207680	     -7.50451239	     -2.75936325	    -38.79032526	     -8.72948894	     12.04774251	      0.00000000	    -17.50474404	      1.95222162	    -12.90941371
      3.19000000	     11.31090552	     -0.84062636	     11.41914507	      1.58880188	      0.89101166	     -0.26812717	     18.66621339	      2.24179727	    -12.54683903	    -28.91585346	     -0.90649032	    -11.27265909	      0.00000000	    -20.80382228	     -8.05949644	     -2.88559325	    -40.49394864	    -10.75566593	     11.24109317	      0.00000000	    -17.53845134	      2.39042115	    -12.74596409
      3.19500000	     11.40697652	     -1.18653319	     11.39183757	      1.59633459	      0.89136736	     -0.26752486	     18.39598490	      2.74940186	    -12.52808637	    -29.46185367	     -0.02337940	    -11.23957980	      0.00000000	    -19.95155841	     -8.57708429	     -2.94511525	    -42.20850350	    -12.65710314	     10.41001601	      0.00000000	    -17.56265655	      2.80507360	    -12.61688634
      3.20000000	     11.47381255	     -1.51367775	     11.35861371	      1.60377163	      0.89174367	     -0.26700632	     18.10728015	      3.22644844	    -12.53654848	    -29.91488755	      0.82197474	    -11.14064006	      0.00000000	    -19.03449319	     -9.03371810	     -2.93271211	    -43.92819995	    -14.35762154	      9.41416962	      0.00000000	    -17.56540527	      3.19959409	    -12.48574010
      3.20500000	     11.49127049	     -1.79981570	     11.30284336	      1.61110145	      0.89212072	     -0.26657458	     17.83273739	      3.64223274	    -12.55652302	    -30.30471445	      1.63716253	    -10.93881728	      0.00000000	    -18.04072673	     -9.38947199	     -2.85731788	    -45.64181522	    -15.86347636	      8.26834620	      0.00000000	    -17.53312008	      3.54571211	    -12.35778551
      3.21000000	     11.49700025	     -2.08090414	     11.24387331	      1.61834711	      0.89254047	     -0.26624245	     17.52156781	      4.04401655	    -12.60354851	    -30.59813241	      2.40814125	    -10.69810524	      0.00000000	    -17.00711850	     -9.70103562	     -2.73750443	    -47.34947827	    -17.07660498	      6.95208065	      0.00000000	    -17.49484294	      3.89834908	    -12.21301442
      3.21500000	     11.49105275	     -2.34192120	     11.16982208	      1.62550179	      0.89300097	     -0.26599575	     17.18280538	      4.41656093	    -12.66149978	    -30.81729000	      3.13612891	    -10.41889567	      0.00000000	    -15.94432880	     -9.94664199	     -2.58679525	    -49.03680634	    -17.98824818	      5.46325040	      0.00000000	    -17.45701937	      4.23450477	    -12.05257459
      3.22000000	     11.45567937	     -2.57584527	     11.07476195	      1.63259217	      0.89349534	     -0.26581773	     16.83925246	      4.74872429	    -12.72276921	    -30.97768959	      3.83683985	    -10.06019115	      0.00000000	    -14.84244511	    -10.11733749	     -2.42162763	    -50.68682492	    -18.66404128	      3.84475862	      0.00000000	    -17.39748551	      4.53836929	    -11.88095958
